<svg width="160" height="46" viewBox="0 0 160 46" fill="none" xmlns="http://www.w3.org/2000/svg">
<path d="M19.8644 31.2638H40.2125C42.0114 31.2638 43.7366 30.5492 45.0086 29.2772C46.2806 28.0052 46.9952 26.28 46.9952 24.4811C46.9952 22.6822 46.2806 20.957 45.0086 19.685C43.7366 18.413 42.0114 17.6984 40.2125 17.6984H19.8644C18.0655 17.6984 16.3403 18.413 15.0683 19.685C13.7963 20.957 13.0817 22.6822 13.0817 24.4811C13.0817 26.28 13.7963 28.0052 15.0683 29.2772C16.3403 30.5492 18.0655 31.2638 19.8644 31.2638ZM16.7664 21.3903C17.1736 20.9815 17.6575 20.6573 18.1904 20.4364C18.7233 20.2154 19.2946 20.102 19.8715 20.1027H35.9266C37.0907 20.1027 38.207 20.5651 39.0301 21.3882C39.8532 22.2113 40.3156 23.3277 40.3156 24.4917C40.3156 25.6558 39.8532 26.7721 39.0301 27.5953C38.207 28.4184 37.0907 28.8808 35.9266 28.8808H19.8786C19.0102 28.8821 18.161 28.6258 17.4383 28.1442C16.7156 27.6627 16.1521 26.9777 15.8189 26.1757C15.4857 25.3738 15.3979 24.4911 15.5665 23.6392C15.7352 22.7874 16.1528 22.0047 16.7664 21.3903Z" fill="#A2CF6A"/>
<path d="M35.2615 3.45361H14.9241C14.0333 3.45361 13.1514 3.62905 12.3284 3.96991C11.5055 4.31077 10.7578 4.81039 10.128 5.44022C9.49814 6.07006 8.99852 6.81777 8.65766 7.64069C8.3168 8.4636 8.14136 9.3456 8.14136 10.2363C8.14136 11.127 8.3168 12.009 8.65766 12.8319C8.99852 13.6549 9.49814 14.4026 10.128 15.0324C10.7578 15.6622 11.5055 16.1619 12.3284 16.5027C13.1514 16.8436 14.0333 17.019 14.9241 17.019H35.2615C36.1522 17.019 37.0342 16.8436 37.8571 16.5027C38.68 16.1619 39.4278 15.6622 40.0576 15.0324C40.6874 14.4026 41.187 13.6549 41.5279 12.8319C41.8688 12.009 42.0442 11.127 42.0442 10.2363C42.0442 9.3456 41.8688 8.4636 41.5279 7.64069C41.187 6.81777 40.6874 6.07006 40.0576 5.44022C39.4278 4.81039 38.68 4.31077 37.8571 3.96991C37.0342 3.62905 36.1522 3.45361 35.2615 3.45361ZM38.3523 13.3378C37.9475 13.7461 37.4661 14.0706 36.9358 14.2928C36.4054 14.5149 35.8365 14.6304 35.2615 14.6324H19.2028C18.0388 14.6324 16.9224 14.17 16.0993 13.3469C15.2762 12.5238 14.8138 11.4075 14.8138 10.2434C14.8138 9.07939 15.2762 7.96302 16.0993 7.13992C16.9224 6.31682 18.0388 5.85441 19.2028 5.85441H35.2615C36.1293 5.85451 36.9776 6.11185 37.6991 6.59391C38.4207 7.07596 38.9832 7.76109 39.3155 8.56273C39.6478 9.36436 39.735 10.2465 39.5661 11.0977C39.3972 11.9489 38.9798 12.7309 38.3665 13.3449L38.3523 13.3378Z" fill="#1E72B8"/>
<path opacity="0.73" d="M6.7827 24.2854H27.1308C28.0215 24.2854 28.9035 24.1099 29.7265 23.7691C30.5494 23.4282 31.2971 22.9286 31.9269 22.2988C32.5568 21.6689 33.0564 20.9212 33.3972 20.0983C33.7381 19.2754 33.9135 18.3934 33.9135 17.5027C33.9135 16.612 33.7381 15.73 33.3972 14.907C33.0564 14.0841 32.5568 13.3364 31.9269 12.7066C31.2971 12.0767 30.5494 11.5771 29.7265 11.2363C28.9035 10.8954 28.0215 10.72 27.1308 10.72H6.7827C4.98382 10.72 3.25861 11.4346 1.98661 12.7066C0.714607 13.9786 0 15.7038 0 17.5027C0 19.3016 0.714607 21.0268 1.98661 22.2988C3.25861 23.5708 4.98382 24.2854 6.7827 24.2854ZM3.6919 14.4012C4.099 13.9925 4.58293 13.6683 5.11582 13.4473C5.64871 13.2263 6.22004 13.1129 6.79693 13.1137H22.8521C24.0161 13.1137 25.1325 13.5761 25.9556 14.3992C26.7787 15.2223 27.2411 16.3386 27.2411 17.5027C27.2411 18.6667 26.7787 19.7831 25.9556 20.6062C25.1325 21.4293 24.0161 21.8917 22.8521 21.8917H6.8076C5.93982 21.8916 5.09155 21.6343 4.36998 21.1522C3.64841 20.6701 3.08593 19.985 2.75363 19.1834C2.42132 18.3817 2.33411 17.4996 2.50302 16.6484C2.67192 15.7972 3.08936 15.0152 3.70257 14.4012H3.6919Z" fill="#61CFF4"/>
<path d="M55.2896 15.4184V3.50336H56.8652V14.01H62.7338V15.4327L55.2896 15.4184Z" fill="#61CFF4"/>
<path d="M63.8684 15.4184L68.4424 3.50336H70.1425L75.0188 15.4184H73.2404L71.8497 11.8083H66.8703L65.565 15.4184H63.8684ZM67.3042 10.5244H71.3447L70.0998 7.22727C69.7228 6.22426 69.4418 5.40029 69.2569 4.75534C69.1016 5.52965 68.8864 6.29072 68.6131 7.03165L67.3042 10.5244Z" fill="#61CFF4"/>
<path d="M89.6156 11.2393L91.1913 11.6376C90.9451 12.7957 90.3192 13.8385 89.4129 14.6004C88.5117 15.2939 87.3984 15.6546 86.2616 15.6212C85.163 15.6686 84.0743 15.3955 83.1281 14.8351C82.3003 14.2825 81.6602 13.491 81.2929 12.5659C80.8683 11.5526 80.6542 10.4635 80.6633 9.36485C80.6378 8.24115 80.8817 7.12766 81.3747 6.11755C81.8177 5.22501 82.5242 4.49004 83.3985 4.01196C84.2847 3.53227 85.2789 3.28738 86.2865 3.30062C87.3624 3.26442 88.4202 3.5845 89.2955 4.21114C90.1308 4.85169 90.728 5.75307 90.9921 6.77199L89.4414 7.12766C89.2454 6.38805 88.8255 5.72713 88.2392 5.23547C87.6618 4.82297 86.9636 4.61403 86.2545 4.6415C85.4394 4.61243 84.6362 4.84283 83.9604 5.2995C83.3469 5.73646 82.8914 6.36039 82.6622 7.07787C82.4136 7.8159 82.2875 8.58964 82.2888 9.36841C82.2692 10.2729 82.4201 11.173 82.7333 12.0217C82.9872 12.7257 83.4725 13.3226 84.1098 13.7148C84.7166 14.0832 85.413 14.2776 86.1229 14.2767C86.9375 14.2994 87.7329 14.028 88.3637 13.512C89.0274 12.9189 89.469 12.1172 89.6156 11.2393Z" fill="#61CFF4"/>
<path d="M93.7485 15.4184V3.50336H95.3242V8.39744H101.516V3.50336H103.096V15.4184H101.516V9.80235H95.3242V15.4184H93.7485Z" fill="#61CFF4"/>
<path d="M104.974 15.4184L109.548 3.50336H111.248L116.124 15.4184H114.328L112.937 11.8083H107.958L106.652 15.4184H104.974ZM108.409 10.5244H112.443L111.198 7.22727C110.821 6.22426 110.54 5.40029 110.355 4.75534C110.2 5.52965 109.985 6.29072 109.711 7.03165L108.409 10.5244Z" fill="#61CFF4"/>
<path d="M119.001 1.39067L118.084 2.77068H116.409L118.162 0.497925H119.723L121.552 2.77068H119.912L119.001 1.39067ZM118.219 15.4185V3.50337H119.798V15.4185H118.219Z" fill="#61CFF4"/>
<path d="M123.113 15.4184V3.50336H124.728L130.988 12.8576V3.50336H132.499V15.4184H130.881L124.625 6.05711V15.4184H123.113Z" fill="#61CFF4"/>
<path d="M135.761 15.4184V3.50336H144.375V4.92605H137.34V8.57527H143.931V9.97307H137.34V14.0278H144.653V15.4504L135.761 15.4184Z" fill="#61CFF4"/>
<path d="M55.2896 30.3567V18.4417H56.8652V28.9483H62.7338V30.371L55.2896 30.3567Z" fill="#1E72B8"/>
<path d="M64.697 24.5522C64.697 22.5746 65.2282 21.0262 66.2904 19.9071C66.8186 19.3532 67.458 18.9176 68.1667 18.6289C68.8754 18.3401 69.6372 18.2048 70.402 18.2318C71.4463 18.2176 72.4746 18.4894 73.3755 19.0179C74.2507 19.5355 74.9535 20.3002 75.3957 21.2159C75.8773 22.2136 76.1208 23.3093 76.107 24.417C76.1271 25.541 75.877 26.6534 75.3779 27.6608C74.9242 28.5776 74.2005 29.3335 73.3043 29.8268C72.4193 30.3156 71.4237 30.5691 70.4127 30.5631C69.353 30.5808 68.3098 30.2984 67.4037 29.7486C66.5338 29.2207 65.8367 28.4507 65.3977 27.5327C64.9385 26.6061 64.6987 25.5863 64.697 24.5522ZM66.3224 24.5771C66.3224 26.014 66.7089 27.145 67.4819 27.9702C67.8585 28.3644 68.3112 28.6782 68.8124 28.8926C69.3137 29.107 69.8533 29.2176 70.3985 29.2176C70.9437 29.2176 71.4832 29.107 71.9845 28.8926C72.4858 28.6782 72.9384 28.3644 73.315 27.9702C74.0833 27.1332 74.4662 25.9476 74.4638 24.4135C74.4828 23.5417 74.3154 22.6759 73.973 21.8739C73.6759 21.1846 73.1807 20.599 72.5503 20.1916C71.9114 19.7909 71.1703 19.5834 70.4163 19.5941C69.8837 19.5859 69.3547 19.6835 68.8602 19.8813C68.3656 20.0791 67.9153 20.3732 67.5353 20.7465C66.7267 21.5076 66.3224 22.7892 66.3224 24.5913V24.5771Z" fill="#1E72B8"/>
<path d="M84.2628 25.6832V24.2854H89.3098V28.7064C88.5878 29.2917 87.7791 29.7609 86.9126 30.0971C86.1031 30.4074 85.2435 30.5666 84.3766 30.5666C83.2638 30.5827 82.1642 30.3237 81.1755 29.8126C80.2412 29.3364 79.4825 28.5753 79.0095 27.6394C78.5201 26.6534 78.2761 25.5638 78.2981 24.4632C78.2857 23.3408 78.529 22.2303 79.0095 21.2159C79.4468 20.2628 80.1821 19.4777 81.1044 18.9787C82.0748 18.4758 83.1558 18.2239 84.2486 18.246C85.0472 18.2341 85.8407 18.3766 86.5853 18.6657C87.2245 18.9025 87.7892 19.3052 88.2214 19.8323C88.6559 20.4115 88.9637 21.0756 89.1248 21.7814L87.7022 22.1727C87.5669 21.662 87.3404 21.18 87.0335 20.75C86.734 20.3787 86.343 20.0919 85.8989 19.9177C85.3774 19.705 84.8188 19.5986 84.2557 19.6047C83.6174 19.5894 82.9825 19.7018 82.3884 19.9355C81.9056 20.1265 81.4708 20.4216 81.1151 20.7998C80.7996 21.1465 80.5457 21.5447 80.3646 21.9771C80.0556 22.7381 79.9009 23.553 79.9093 24.3743C79.8781 25.2943 80.0658 26.2086 80.4571 27.0419C80.8 27.7339 81.3612 28.2939 82.054 28.6353C82.7456 28.9795 83.5081 29.1573 84.2806 29.1546C85.5429 29.1295 86.7632 28.6965 87.7591 27.9204V25.701L84.2628 25.6832Z" fill="#1E72B8"/>
<path d="M92.4681 30.3567V18.4417H94.0438V30.3567H92.4681Z" fill="#1E72B8"/>
<path d="M96.8536 26.5297L98.3404 26.3981C98.3853 26.9186 98.5535 27.4209 98.8312 27.8635C99.1333 28.2816 99.5494 28.6039 100.03 28.7918C100.608 29.0347 101.231 29.1557 101.858 29.1474C102.401 29.1576 102.941 29.0672 103.451 28.8807C103.859 28.7422 104.217 28.486 104.479 28.1444C104.698 27.8492 104.817 27.4914 104.817 27.1237C104.824 26.7702 104.71 26.4249 104.494 26.1456C104.207 25.8181 103.839 25.5726 103.426 25.4342C102.726 25.2044 102.013 25.0109 101.292 24.8545C100.5 24.6918 99.7287 24.4425 98.9912 24.1111C98.4765 23.8597 98.0373 23.4769 97.7179 23.0014C97.4396 22.5573 97.2951 22.0423 97.3018 21.5182C97.3015 20.9179 97.4798 20.3311 97.814 19.8323C98.1774 19.2909 98.6991 18.8748 99.3078 18.6408C100.003 18.3631 100.746 18.2253 101.495 18.2354C102.295 18.2199 103.089 18.365 103.832 18.6622C104.465 18.9146 105.006 19.3522 105.386 19.9177C105.752 20.4774 105.955 21.1275 105.973 21.7957L104.462 21.9095C104.445 21.5842 104.364 21.2655 104.222 20.9723C104.08 20.6791 103.881 20.4172 103.636 20.2022C103.031 19.7758 102.297 19.5722 101.559 19.6261C100.611 19.6261 99.916 19.8003 99.475 20.1489C99.2741 20.2929 99.1101 20.4824 98.9964 20.7018C98.8827 20.9212 98.8224 21.1644 98.8205 21.4115C98.8136 21.6126 98.8514 21.8126 98.9314 21.9972C99.0114 22.1817 99.1315 22.3462 99.2829 22.4786C99.5888 22.756 100.378 23.0405 101.662 23.3286C102.561 23.5056 103.443 23.7603 104.298 24.0898C104.911 24.3461 105.443 24.7656 105.834 25.3026C106.168 25.8047 106.34 26.3965 106.329 26.9992C106.325 27.6323 106.136 28.2505 105.785 28.7775C105.401 29.356 104.857 29.8097 104.22 30.0829C103.498 30.4046 102.715 30.5649 101.926 30.5524C100.999 30.5806 100.077 30.4196 99.2153 30.0793C98.5139 29.788 97.9165 29.2923 97.501 28.6566C97.0893 28.0227 96.8649 27.2855 96.8536 26.5297Z" fill="#1E72B8"/>
<path d="M112.087 30.3567V19.8466H108.175V18.4239H117.618V19.8466H113.663V30.3567H112.087Z" fill="#1E72B8"/>
<path d="M120.058 30.3567V18.4417H121.633V30.3567H120.058Z" fill="#1E72B8"/>
<path d="M134.007 29.0799C134.636 29.5278 135.315 29.8992 136.031 30.186L135.569 31.2815C134.643 30.9332 133.779 30.4398 133.008 29.8197C132.113 30.3169 131.104 30.5719 130.081 30.5595C129.05 30.573 128.036 30.3022 127.15 29.777C126.274 29.2612 125.569 28.4993 125.123 27.5861C124.634 26.5909 124.39 25.4934 124.411 24.385C124.397 23.2773 124.641 22.1815 125.123 21.1839C125.562 20.2611 126.272 19.4934 127.157 18.9823C128.059 18.4747 129.078 18.2145 130.113 18.2283C131.157 18.213 132.185 18.4836 133.086 19.0108C133.961 19.5271 134.664 20.2906 135.106 21.2053C135.581 22.1984 135.818 23.2881 135.8 24.3886C135.813 25.2894 135.662 26.1851 135.352 27.0312C135.063 27.8062 134.603 28.5064 134.007 29.0799ZM130.536 27.081C131.36 27.2933 132.128 27.6816 132.787 28.2192C133.716 27.3762 134.178 26.1029 134.178 24.4099C134.197 23.5416 134.03 22.6792 133.687 21.8811C133.386 21.1899 132.884 20.6051 132.247 20.2023C131.458 19.7233 130.532 19.5232 129.616 19.6342C128.7 19.7451 127.848 20.1606 127.196 20.814C126.423 21.6179 126.037 22.8189 126.037 24.417C126.037 25.9678 126.42 27.1533 127.186 27.9738C127.557 28.3806 128.011 28.7024 128.518 28.9173C129.025 29.1321 129.573 29.2349 130.123 29.2186C130.671 29.2217 131.213 29.1128 131.717 28.8985C131.237 28.5879 130.709 28.3573 130.155 28.2156L130.536 27.081Z" fill="#1E72B8"/>
<path d="M146.307 18.4417H147.886V25.3239C147.92 26.2889 147.783 27.2523 147.48 28.1693C147.194 28.8894 146.677 29.4947 146.011 29.8908C145.164 30.3669 144.201 30.596 143.23 30.5524C142.283 30.5901 141.342 30.3921 140.491 29.9762C139.804 29.6146 139.265 29.0229 138.969 28.3045C138.628 27.3467 138.474 26.3326 138.514 25.3168V18.4417H140.093V25.3026C140.056 26.0758 140.154 26.8496 140.381 27.5896C140.567 28.0722 140.917 28.4739 141.37 28.7242C141.899 29.0049 142.492 29.1423 143.091 29.1225C144.251 29.1225 145.081 28.8593 145.581 28.3329C146.081 27.8065 146.327 26.7964 146.317 25.3026L146.307 18.4417Z" fill="#1E72B8"/>
<path d="M151.108 30.3567V18.4417H159.723V19.8643H152.684V23.5136H159.274V24.9114H152.684V28.966H160V30.3887L151.108 30.3567Z" fill="#1E72B8"/>
<path d="M55.3535 45.295V33.3799H59.4473C60.1628 33.3597 60.8783 33.417 61.5814 33.5507C62.2256 33.6882 62.8264 33.9812 63.3313 34.4043C63.9731 34.9483 64.4632 35.6492 64.754 36.4387C65.0808 37.351 65.2387 38.3152 65.2199 39.2841C65.2333 40.0968 65.1267 40.907 64.9034 41.6885C64.7306 42.3078 64.4566 42.8943 64.0924 43.4242C63.7965 43.841 63.4293 44.2022 63.0076 44.4912C62.572 44.772 62.0905 44.9743 61.5849 45.0887C60.9573 45.2317 60.315 45.2998 59.6714 45.2915L55.3535 45.295ZM56.9292 43.8723H59.4758C60.0985 43.8934 60.7209 43.8203 61.3217 43.6554C61.7213 43.5364 62.087 43.3243 62.3887 43.0365C62.7944 42.6098 63.0931 42.093 63.2602 41.5284C63.4857 40.7852 63.5913 40.0108 63.5731 39.2343C63.5731 37.9871 63.3692 37.0292 62.9614 36.3605C62.6278 35.7592 62.1035 35.2862 61.4711 35.016C60.8092 34.82 60.119 34.737 59.4295 34.7706H56.9398L56.9292 43.8723Z" fill="#61CFF4"/>
<path d="M75.7586 33.38H77.3342V40.2623C77.3685 41.2273 77.2312 42.1907 76.9287 43.1077C76.6423 43.8278 76.1259 44.433 75.4598 44.8292C74.6128 45.3056 73.6492 45.5348 72.6784 45.4907C71.7319 45.5284 70.7908 45.3304 69.9397 44.9145C69.2521 44.5529 68.7133 43.9613 68.4174 43.2429C68.0769 42.285 67.9224 41.271 67.9622 40.2552V33.38H69.5414V40.241C69.5047 41.0142 69.6022 41.7879 69.8295 42.5279C70.0156 43.0116 70.3672 43.4136 70.8218 43.6625C71.3496 43.9436 71.9421 44.081 72.5397 44.0609C73.6992 44.0609 74.5291 43.7977 75.0294 43.2713C75.5203 42.7485 75.7692 41.7383 75.7692 40.241L75.7586 33.38Z" fill="#61CFF4"/>
<path d="M85.7957 45.2951V33.38H93.8339V34.8027H87.3713V38.4626H92.9625V39.8853H87.3713V45.2986L85.7957 45.2951Z" fill="#61CFF4"/>
<path d="M96.473 45.2951V33.38H101.773C102.592 33.3453 103.412 33.4536 104.195 33.7001C104.75 33.92 105.216 34.3194 105.518 34.8347C105.848 35.3753 106.019 35.9976 106.012 36.6309C106.031 37.4222 105.737 38.189 105.194 38.7649C104.646 39.3435 103.801 39.7122 102.658 39.871C103 40.0243 103.319 40.2229 103.608 40.4615C104.108 40.9342 104.548 41.467 104.917 42.0478L106.99 45.2915H104.974L103.398 42.8018C102.936 42.0905 102.559 41.5392 102.26 41.1586C102.035 40.8536 101.766 40.5849 101.46 40.3619C101.241 40.2192 101.001 40.1123 100.748 40.0453C100.458 40.0005 100.164 39.9814 99.8697 39.9884H98.0415V45.2809L96.473 45.2951ZM98.0487 38.6369H101.438C102.01 38.6571 102.581 38.5826 103.128 38.4163C103.507 38.29 103.833 38.0393 104.052 37.705C104.262 37.3886 104.372 37.0172 104.369 36.638C104.376 36.3754 104.325 36.1145 104.219 35.874C104.113 35.6335 103.956 35.4195 103.757 35.2473C103.349 34.8845 102.703 34.7031 101.819 34.7031H98.0487V38.6369Z" fill="#61CFF4"/>
<path d="M108.552 39.4905C108.552 37.513 109.083 35.9646 110.145 34.8454C110.673 34.292 111.313 33.8566 112.022 33.5679C112.73 33.2791 113.492 33.1436 114.257 33.1702C115.301 33.156 116.329 33.4278 117.23 33.9562C118.106 34.4729 118.809 35.2379 119.25 36.1543C119.732 37.1519 119.975 38.2477 119.962 39.3554C119.981 40.4797 119.729 41.5921 119.229 42.5991C118.777 43.5171 118.053 44.2734 117.155 44.7652C116.27 45.254 115.275 45.5075 114.264 45.5014C113.204 45.5185 112.161 45.2362 111.255 44.6869C110.385 44.1591 109.688 43.389 109.249 42.4711C108.791 41.5442 108.552 40.5244 108.552 39.4905ZM110.177 39.5154C110.177 40.9524 110.564 42.0834 111.337 42.9086C111.713 43.3028 112.166 43.6166 112.667 43.831C113.168 44.0454 113.708 44.1559 114.253 44.1559C114.798 44.1559 115.338 44.0454 115.839 43.831C116.34 43.6166 116.793 43.3028 117.17 42.9086C117.938 42.0715 118.322 40.886 118.322 39.3518C118.342 38.4796 118.173 37.6135 117.828 36.8123C117.531 36.1229 117.035 35.5374 116.405 35.13C115.766 34.7293 115.025 34.5218 114.271 34.5324C113.738 34.525 113.21 34.623 112.715 34.8208C112.221 35.0186 111.77 35.3122 111.39 35.6848C110.581 36.446 110.177 37.7276 110.177 39.5297V39.5154Z" fill="#61CFF4"/>
<path d="M122.811 45.2951V33.38H124.39V45.2951H122.811Z" fill="#61CFF4"/>
<path d="M127.737 45.295V33.38H131.841C132.557 33.36 133.272 33.4173 133.975 33.5507C134.62 33.6882 135.22 33.9813 135.725 34.4043C136.367 34.9484 136.857 35.6492 137.148 36.4388C137.475 37.3511 137.633 38.3153 137.614 39.2842C137.627 40.0968 137.521 40.907 137.297 41.6885C137.125 42.3078 136.851 42.8943 136.486 43.4242C136.196 43.8395 135.835 44.2006 135.419 44.4912C134.984 44.7721 134.502 44.9743 133.997 45.0888C133.369 45.2317 132.727 45.2998 132.083 45.2915L127.737 45.295ZM129.312 43.8723H131.859C132.482 43.8935 133.104 43.8203 133.705 43.6554C134.105 43.5364 134.47 43.3243 134.772 43.0365C135.178 42.6099 135.476 42.093 135.643 41.5285C135.869 40.7852 135.975 40.0108 135.956 39.2344C135.956 37.9871 135.753 37.0292 135.345 36.3605C135.011 35.7592 134.487 35.2862 133.854 35.0161C133.193 34.82 132.502 34.737 131.813 34.7707H129.323L129.312 43.8723Z" fill="#61CFF4"/>
</svg>
