<svg xmlns="http://www.w3.org/2000/svg" xmlns:xlink="http://www.w3.org/1999/xlink" width="168" height="65.568" viewBox="0 0 168 65.568">
  <defs>
    <clipPath id="clip-path">
      <rect id="Rectangle_1" data-name="Rectangle 1" width="168" height="65.568" fill="none"/>
    </clipPath>
    <clipPath id="clip-path-2">
      <path id="Tracé_3" data-name="Tracé 3" d="M137.339,48.112v.158a12.9,12.9,0,0,0,8.457,3.144h0l.046,0h4.818V46.1h-2.373a11.748,11.748,0,0,1-5.82-1.665Z" transform="translate(-137.339 -44.432)" fill="none"/>
    </clipPath>
    <linearGradient id="linear-gradient" x1="-7.776" y1="2.629" x2="-7.719" y2="2.629" gradientUnits="objectBoundingBox">
      <stop offset="0" stop-color="#75adca"/>
      <stop offset="0.172" stop-color="#75adca"/>
      <stop offset="1" stop-color="#307a99"/>
    </linearGradient>
    <clipPath id="clip-path-4">
      <path id="Tracé_5" data-name="Tracé 5" d="M130.344,32.8a13.206,13.206,0,0,0-.131,1.758,13.023,13.023,0,0,0,1.475,6.017l7.468-1.185a6.407,6.407,0,0,1-1.485-7.753Z" transform="translate(-130.213 -31.638)" fill="none"/>
    </clipPath>
    <linearGradient id="linear-gradient-2" x1="-8.262" y1="4.255" x2="-8.198" y2="4.255" gradientUnits="objectBoundingBox">
      <stop offset="0" stop-color="#75adca"/>
      <stop offset="0.008" stop-color="#75adca"/>
      <stop offset="1" stop-color="#307a99"/>
    </linearGradient>
  </defs>
  <g id="Groupe_11" data-name="Groupe 11" transform="translate(0 0)">
    <g id="Groupe_2" data-name="Groupe 2" transform="translate(0 0)">
      <g id="Groupe_1" data-name="Groupe 1" clip-path="url(#clip-path)">
        <path id="Tracé_1" data-name="Tracé 1" d="M96.441,29.687a32.06,32.06,0,0,1-7.774-12.223H81.674A39.123,39.123,0,0,0,92.818,35.331Z" transform="translate(-26.387 -5.642)" fill="#75adca"/>
        <path id="Tracé_2" data-name="Tracé 2" d="M148.239,46.1a11.758,11.758,0,0,1-5.82-1.666l-5.234,3.756a12.931,12.931,0,0,0,8.562,3.227h0l.046,0h19.729V46.1Z" transform="translate(-44.321 -14.354)" fill="#75adca"/>
      </g>
    </g>
    <g id="Groupe_4" data-name="Groupe 4" transform="translate(92.968 30.077)">
      <g id="Groupe_3" data-name="Groupe 3" clip-path="url(#clip-path-2)">
        <rect id="Rectangle_2" data-name="Rectangle 2" width="12.039" height="15.031" transform="translate(-2.714 5.689) rotate(-64.5)" fill="url(#linear-gradient)"/>
      </g>
    </g>
    <g id="Groupe_6" data-name="Groupe 6" transform="translate(0 0)">
      <g id="Groupe_5" data-name="Groupe 5" clip-path="url(#clip-path)">
        <path id="Tracé_4" data-name="Tracé 4" d="M139.77,34.97a6.432,6.432,0,1,1,9.177-8.559L152.35,20a13.166,13.166,0,0,0-18.888,18.3Z" transform="translate(-42.069 -5.322)" fill="#75adca"/>
      </g>
    </g>
    <g id="Groupe_8" data-name="Groupe 8" transform="translate(88.144 21.416)">
      <g id="Groupe_7" data-name="Groupe 7" clip-path="url(#clip-path-4)">
        <rect id="Rectangle_4" data-name="Rectangle 4" width="10.57" height="10.567" transform="translate(-1.775 0.367) rotate(-11.7)" fill="url(#linear-gradient-2)"/>
      </g>
    </g>
    <g id="Groupe_10" data-name="Groupe 10" transform="translate(0 0)">
      <g id="Groupe_9" data-name="Groupe 9" clip-path="url(#clip-path)">
        <path id="Tracé_6" data-name="Tracé 6" d="M139.131,18.667c-4.124,10.532-12.621,17.78-22.418,17.78a21.58,21.58,0,0,1-14.953-6.372l-3.623,5.644A27.887,27.887,0,0,0,116.713,43.1c12.061,0,22.569-8.279,27.934-20.436a20.706,20.706,0,0,0-5.516-3.993" transform="translate(-31.706 -6.031)" fill="#75adca"/>
        <path id="Tracé_7" data-name="Tracé 7" d="M95.33,39.784l5.042-8.124,2.662,2.241-5.042,8.4Z" transform="translate(-30.799 -10.228)" fill="#fff"/>
        <path id="Tracé_8" data-name="Tracé 8" d="M27.777,17.465H.119V42.707h7.39V24.854H15.29V42.707h7.389V24.854h5.1a2.919,2.919,0,0,1,2.654,3.119V42.707h7.389V27.974A10.3,10.3,0,0,0,27.777,17.465" transform="translate(-0.038 -5.642)" fill="#152220"/>
        <path id="Tracé_9" data-name="Tracé 9" d="M65.343,9.006a4.5,4.5,0,1,0-4.5-4.5,4.5,4.5,0,0,0,4.5,4.5" transform="translate(-19.656 0)" fill="#152220"/>
        <path id="Tracé_10" data-name="Tracé 10" d="M100.161,21.33c-4.821,0-7.279,4.47-9.883,9.2-2.626,4.774-5.342,9.711-10.752,9.711H74.278a.608.608,0,1,1,0-1.215h5.248c4.689,0,7.114-4.409,9.685-9.082,2.659-4.835,5.409-9.834,10.949-9.834h4.2V17.467h-4.23a11.406,11.406,0,0,0-1.195.066c-4.148.438-6.945,3.132-9.113,6.272-.02-.028-3.508,5.958-3.508,5.958-2.256,4.024-4,6.519-6.565,6.79a4.49,4.49,0,0,1-.472.03H69.43V17.465H62.149V42.708h17.13a11.032,11.032,0,0,0,1.185-.066,10.052,10.052,0,0,0,3.245-.912A15.289,15.289,0,0,0,89.6,36.166c.06-.089.119-.18.178-.271.705-1.085,1.359-2.23,2.035-3.449.475-.854.972-1.746,1.52-2.673l-.005-.009c2.226-3.878,4.025-6.171,6.8-6.171h4.23V21.33Z" transform="translate(-20.079 -5.642)" fill="#152220"/>
        <path id="Tracé_11" data-name="Tracé 11" d="M186.374,16.9H174.213V42.522h6.2V23.1h5.47a4.957,4.957,0,0,1,4.952,4.95v14.47h6.2V27.565A10.68,10.68,0,0,0,186.374,16.9" transform="translate(-56.284 -5.459)" fill="#91b508"/>
        <path id="Tracé_12" data-name="Tracé 12" d="M226.5,16.9H214.338V42.523h6.2V23.1h5.47a4.956,4.956,0,0,1,4.952,4.95v14.47h6.2V27.566A10.68,10.68,0,0,0,226.5,16.9" transform="translate(-69.248 -5.459)" fill="#91b508"/>
        <path id="Tracé_13" data-name="Tracé 13" d="M2.462,76.565q-.17.39-.386.949t-.453,1.215H3.3q-.236-.655-.456-1.222t-.383-.942M3.967,80.68c-.068-.2-.14-.4-.214-.6s-.145-.4-.214-.6H1.385c-.068.206-.139.408-.211.607l-.211.592H0q.285-.816.544-1.509t.5-1.311q.247-.617.489-1.177t.5-1.1h.885q.258.544.5,1.1t.49,1.177q.247.619.508,1.311t.548,1.509Z" transform="translate(0 -24.418)" fill="#152220"/>
        <path id="Tracé_14" data-name="Tracé 14" d="M10.5,80.734a2.853,2.853,0,0,1-1.031-.177,2.045,2.045,0,0,1-.772-.519,2.34,2.34,0,0,1-.487-.836,3.5,3.5,0,0,1-.169-1.134,3.051,3.051,0,0,1,.195-1.133,2.457,2.457,0,0,1,.533-.836,2.257,2.257,0,0,1,.8-.519,2.685,2.685,0,0,1,.979-.176,3.159,3.159,0,0,1,.574.047,4.229,4.229,0,0,1,.449.107,1.841,1.841,0,0,1,.316.125c.084.044.144.076.177.1l-.272.758a2.211,2.211,0,0,0-.5-.21,2.441,2.441,0,0,0-.711-.1,1.678,1.678,0,0,0-.619.114,1.356,1.356,0,0,0-.5.343,1.615,1.615,0,0,0-.328.575,2.49,2.49,0,0,0-.118.8,2.82,2.82,0,0,0,.092.744,1.647,1.647,0,0,0,.284.585,1.282,1.282,0,0,0,.486.383,1.669,1.669,0,0,0,.706.135,2.66,2.66,0,0,0,.8-.1,3.346,3.346,0,0,0,.479-.188l.249.758a1.284,1.284,0,0,1-.239.118,3.39,3.39,0,0,1-.357.114,3.623,3.623,0,0,1-.464.088,4.293,4.293,0,0,1-.552.033" transform="translate(-2.599 -24.361)" fill="#152220"/>
        <path id="Tracé_15" data-name="Tracé 15" d="M17.469,80.734a2.853,2.853,0,0,1-1.031-.177,2.045,2.045,0,0,1-.772-.519,2.34,2.34,0,0,1-.487-.836,3.52,3.52,0,0,1-.169-1.134,3.065,3.065,0,0,1,.195-1.133,2.467,2.467,0,0,1,.533-.836,2.257,2.257,0,0,1,.8-.519,2.685,2.685,0,0,1,.979-.176,3.159,3.159,0,0,1,.574.047,4.229,4.229,0,0,1,.449.107,1.841,1.841,0,0,1,.316.125c.084.044.143.076.177.1l-.272.758a2.211,2.211,0,0,0-.5-.21,2.441,2.441,0,0,0-.711-.1,1.672,1.672,0,0,0-.618.114,1.353,1.353,0,0,0-.5.343,1.615,1.615,0,0,0-.328.575,2.49,2.49,0,0,0-.118.8,2.792,2.792,0,0,0,.093.744,1.635,1.635,0,0,0,.283.585,1.282,1.282,0,0,0,.486.383,1.671,1.671,0,0,0,.707.135,2.658,2.658,0,0,0,.8-.1,3.3,3.3,0,0,0,.479-.188l.25.758a1.284,1.284,0,0,1-.239.118,3.39,3.39,0,0,1-.357.114,3.623,3.623,0,0,1-.464.088,4.293,4.293,0,0,1-.552.033" transform="translate(-4.849 -24.361)" fill="#152220"/>
        <path id="Tracé_16" data-name="Tracé 16" d="M25.37,73.089l-1.2,1.164-.442-.4,1.082-1.288Zm-2.915,6.618v-5.1h3.276v.787H23.382v1.259h2.091v.772H23.382v1.495h2.525v.788Z" transform="translate(-7.255 -23.444)" fill="#152220"/>
        <path id="Tracé_17" data-name="Tracé 17" d="M32.278,79.878v.8H29.054v-5.1h.927v4.3Z" transform="translate(-9.387 -24.417)" fill="#152220"/>
        <path id="Tracé_18" data-name="Tracé 18" d="M38,73.089l-1.2,1.164-.442-.4,1.082-1.288Zm-2.915,6.618v-5.1h3.276v.787H36.012v1.259H38.1v.772H36.012v1.495h2.525v.788Z" transform="translate(-11.335 -23.444)" fill="#152220"/>
        <path id="Tracé_19" data-name="Tracé 19" d="M43.153,76.306q-.294,0-.545.021v1.649h.405a4.18,4.18,0,0,0,.6-.037,1.251,1.251,0,0,0,.431-.132.645.645,0,0,0,.262-.258.856.856,0,0,0,.089-.413.818.818,0,0,0-.089-.4.655.655,0,0,0-.254-.258,1.189,1.189,0,0,0-.395-.136,2.86,2.86,0,0,0-.5-.04m-.066-.8a2.965,2.965,0,0,1,1.69.4,1.527,1.527,0,0,1-.439,2.643c.093.113.2.25.317.412s.237.337.36.527.24.382.353.581.214.393.3.585H44.633c-.093-.177-.194-.354-.3-.534s-.217-.353-.327-.523-.22-.328-.328-.478-.208-.284-.3-.4c-.068,0-.127.007-.177.007h-.589v1.929h-.927V75.628a4.893,4.893,0,0,1,.722-.1c.255-.017.484-.025.685-.025" transform="translate(-13.466 -24.393)" fill="#152220"/>
        <path id="Tracé_20" data-name="Tracé 20" d="M50.753,76.565q-.17.39-.386.949t-.453,1.215h1.678q-.236-.655-.456-1.222t-.383-.942m1.505,4.115c-.068-.2-.14-.4-.214-.6s-.145-.4-.214-.6H49.676c-.068.206-.139.408-.211.607s-.141.4-.21.592h-.965q.286-.816.544-1.509t.5-1.311q.247-.617.489-1.177t.5-1.1h.885q.258.544.5,1.1T52.2,77.86q.247.619.509,1.311t.548,1.509Z" transform="translate(-15.602 -24.418)" fill="#152220"/>
        <path id="Tracé_21" data-name="Tracé 21" d="M59.491,75.579v.8H57.923v4.3h-.936v-4.3H55.419v-.8Z" transform="translate(-17.905 -24.417)" fill="#152220"/>
        <path id="Tracé_22" data-name="Tracé 22" d="M62.7,80.68v-5.1h3.276v.787H63.631v1.259h2.091V78.4H63.631v1.495h2.525v.788Z" transform="translate(-20.258 -24.418)" fill="#152220"/>
        <path id="Tracé_23" data-name="Tracé 23" d="M71.043,80.79a2.4,2.4,0,0,1-.9-.151,1.651,1.651,0,0,1-.622-.423,1.722,1.722,0,0,1-.365-.641,2.661,2.661,0,0,1-.118-.81V75.578h.935v3.1a2.019,2.019,0,0,0,.077.592,1.044,1.044,0,0,0,.221.4.89.89,0,0,0,.338.228,1.243,1.243,0,0,0,.438.074,1.275,1.275,0,0,0,.442-.074.889.889,0,0,0,.343-.228,1.053,1.053,0,0,0,.221-.4,2,2,0,0,0,.077-.592v-3.1h.935v3.188a2.578,2.578,0,0,1-.121.81,1.768,1.768,0,0,1-.369.641,1.646,1.646,0,0,1-.629.423,2.459,2.459,0,0,1-.906.151" transform="translate(-22.306 -24.417)" fill="#152220"/>
        <path id="Tracé_24" data-name="Tracé 24" d="M78.438,76.306q-.294,0-.545.021v1.649H78.3a4.18,4.18,0,0,0,.6-.037,1.251,1.251,0,0,0,.431-.132.639.639,0,0,0,.261-.258.848.848,0,0,0,.089-.413.811.811,0,0,0-.089-.4.648.648,0,0,0-.253-.258,1.189,1.189,0,0,0-.395-.136,2.86,2.86,0,0,0-.5-.04m-.066-.8a2.965,2.965,0,0,1,1.69.4,1.527,1.527,0,0,1-.439,2.643c.093.113.2.25.317.412s.238.337.361.527.24.382.353.581.214.393.3.585H79.918c-.093-.177-.194-.354-.3-.534s-.217-.353-.327-.523-.22-.328-.328-.478-.208-.284-.3-.4c-.068,0-.127.007-.177.007h-.589v1.929h-.927V75.628a4.892,4.892,0,0,1,.722-.1c.255-.017.484-.025.685-.025" transform="translate(-24.866 -24.393)" fill="#152220"/>
        <path id="Tracé_25" data-name="Tracé 25" d="M88.039,79.89c.054.005.125.009.214.011s.208,0,.36,0a1.858,1.858,0,0,0,1.4-.475,2.174,2.174,0,0,0,.011-2.66,1.859,1.859,0,0,0-1.392-.464,5.4,5.4,0,0,0-.589.022Zm3.4-1.789a2.953,2.953,0,0,1-.206,1.152,2.182,2.182,0,0,1-.586.818,2.44,2.44,0,0,1-.912.485,4.142,4.142,0,0,1-1.181.159c-.206,0-.439-.009-.7-.026a4.679,4.679,0,0,1-.743-.107V75.628a4.539,4.539,0,0,1,.751-.1c.264-.014.5-.022.707-.022a4.253,4.253,0,0,1,1.17.151,2.4,2.4,0,0,1,.909.471,2.111,2.111,0,0,1,.586.81,3,3,0,0,1,.206,1.166" transform="translate(-28.144 -24.393)" fill="#152220"/>
        <path id="Tracé_26" data-name="Tracé 26" d="M95.233,80.68v-5.1h3.276v.787H96.16v1.259h2.091V78.4H96.16v1.495h2.525v.788Z" transform="translate(-30.768 -24.418)" fill="#152220"/>
        <path id="Tracé_27" data-name="Tracé 27" d="M108.331,75.579v.979h-1.539V80.68h-1.148V76.557h-1.539v-.979Z" transform="translate(-33.634 -24.417)" fill="#91b508"/>
        <path id="Tracé_28" data-name="Tracé 28" d="M113.217,76.471c-.083,0-.158,0-.225.007l-.188.015v1.384h.324a1.943,1.943,0,0,0,.927-.163.584.584,0,0,0,.28-.552.561.561,0,0,0-.283-.533,1.753,1.753,0,0,0-.836-.158m-.066-.98a3.162,3.162,0,0,1,1.759.409,1.419,1.419,0,0,1,.611,1.27,1.437,1.437,0,0,1-.246.873,1.628,1.628,0,0,1-.711.527c.1.127.211.273.324.437s.225.336.334.516.217.365.321.559.2.384.287.571h-1.283l-.285-.508q-.144-.258-.3-.5c-.1-.162-.2-.315-.3-.46s-.2-.277-.3-.395H112.8v1.863h-1.149V75.624a6.469,6.469,0,0,1,.778-.1q.4-.029.717-.03" transform="translate(-36.074 -24.389)" fill="#91b508"/>
        <path id="Tracé_29" data-name="Tracé 29" d="M121.267,76.735q-.039.112-.113.3l-.168.442c-.063.167-.134.351-.211.552s-.158.412-.238.632H122c-.079-.221-.154-.433-.227-.634s-.142-.387-.208-.554l-.173-.441q-.075-.191-.12-.3m1.38,3.946c-.057-.177-.118-.359-.183-.546s-.13-.373-.195-.558h-1.992c-.065.185-.129.372-.194.56s-.125.368-.181.544h-1.192q.288-.824.546-1.524t.506-1.318q.247-.618.487-1.174c.16-.37.326-.732.5-1.085h1.088c.168.353.334.715.5,1.085s.326.762.491,1.174.334.852.507,1.318.355.974.547,1.524Z" transform="translate(-38.352 -24.418)" fill="#91b508"/>
        <path id="Tracé_30" data-name="Tracé 30" d="M130.955,80.68q-.493-.876-1.068-1.73a17.6,17.6,0,0,0-1.222-1.612V80.68h-1.135v-5.1h.936q.243.243.537.6t.6.755q.307.4.608.832c.2.287.39.564.567.828v-3.01h1.141v5.1Z" transform="translate(-41.202 -24.418)" fill="#91b508"/>
        <path id="Tracé_31" data-name="Tracé 31" d="M137.215,79.748a1.645,1.645,0,0,0,.4-.041.739.739,0,0,0,.255-.11.369.369,0,0,0,.132-.165.6.6,0,0,0,.037-.214.494.494,0,0,0-.235-.416,3.425,3.425,0,0,0-.81-.357c-.167-.058-.334-.126-.5-.2a1.836,1.836,0,0,1-.449-.287,1.363,1.363,0,0,1-.324-.42,1.314,1.314,0,0,1-.126-.6,1.494,1.494,0,0,1,.133-.637,1.352,1.352,0,0,1,.376-.482,1.707,1.707,0,0,1,.588-.305,2.647,2.647,0,0,1,.781-.107,3.115,3.115,0,0,1,1.51.353l-.332.906a3.055,3.055,0,0,0-.475-.195,2.046,2.046,0,0,0-.63-.085,1.163,1.163,0,0,0-.592.114.387.387,0,0,0-.181.351.406.406,0,0,0,.066.236.641.641,0,0,0,.188.173,1.623,1.623,0,0,0,.279.14c.106.041.222.085.35.129a7.327,7.327,0,0,1,.692.291,1.852,1.852,0,0,1,.489.334,1.226,1.226,0,0,1,.292.449,1.829,1.829,0,0,1,.095.627,1.329,1.329,0,0,1-.5,1.107,2.41,2.41,0,0,1-1.509.395,4.161,4.161,0,0,1-.611-.041,3.982,3.982,0,0,1-.483-.1,2.777,2.777,0,0,1-.36-.125c-.1-.044-.185-.086-.255-.125l.325-.913a2.839,2.839,0,0,0,.563.225,2.946,2.946,0,0,0,.821.1" transform="translate(-43.779 -24.361)" fill="#91b508"/>
        <rect id="Rectangle_5" data-name="Rectangle 5" width="1.149" height="5.101" transform="translate(96.48 51.161)" fill="#91b508"/>
        <path id="Tracé_32" data-name="Tracé 32" d="M149.759,75.579v.979H148.22V80.68h-1.148V76.557h-1.539v-.979Z" transform="translate(-47.019 -24.417)" fill="#91b508"/>
        <rect id="Rectangle_6" data-name="Rectangle 6" width="1.149" height="5.101" transform="translate(103.626 51.161)" fill="#91b508"/>
        <path id="Tracé_33" data-name="Tracé 33" d="M157.6,78.069a2.335,2.335,0,0,0,.091.678,1.548,1.548,0,0,0,.265.519,1.158,1.158,0,0,0,.423.334,1.449,1.449,0,0,0,1.145,0,1.16,1.16,0,0,0,.427-.334,1.573,1.573,0,0,0,.265-.519,2.335,2.335,0,0,0,.091-.678,2.367,2.367,0,0,0-.091-.68,1.568,1.568,0,0,0-.265-.523,1.184,1.184,0,0,0-.427-.335,1.352,1.352,0,0,0-.571-.118,1.292,1.292,0,0,0-.574.122,1.2,1.2,0,0,0-.423.338,1.537,1.537,0,0,0-.265.523,2.338,2.338,0,0,0-.091.673m3.894,0a3.138,3.138,0,0,1-.195,1.152,2.364,2.364,0,0,1-.534.832,2.172,2.172,0,0,1-.806.5,2.929,2.929,0,0,1-1.005.17,2.847,2.847,0,0,1-.986-.17,2.25,2.25,0,0,1-.81-.5,2.34,2.34,0,0,1-.545-.832,3.081,3.081,0,0,1-.2-1.152,2.991,2.991,0,0,1,.206-1.152,2.459,2.459,0,0,1,.555-.835,2.289,2.289,0,0,1,.811-.509,2.8,2.8,0,0,1,.967-.169,2.882,2.882,0,0,1,.987.169,2.243,2.243,0,0,1,.81.509,2.417,2.417,0,0,1,.545.835,3.1,3.1,0,0,1,.2,1.152" transform="translate(-50.535 -24.361)" fill="#91b508"/>
        <path id="Tracé_34" data-name="Tracé 34" d="M168.98,80.68q-.493-.876-1.068-1.73a17.6,17.6,0,0,0-1.222-1.612V80.68h-1.135v-5.1h.936q.243.243.537.6t.6.755q.307.4.608.832c.2.287.39.564.567.828v-3.01h1.141v5.1Z" transform="translate(-53.487 -24.418)" fill="#91b508"/>
        <path id="Tracé_35" data-name="Tracé 35" d="M179.69,73.3l-1.21,1.024-.5-.449,1.042-1.193Zm-2.65,6.442v-5.1h3.446v.964h-2.3v1h2.039v.943h-2.039v1.229h2.467v.964Z" transform="translate(-57.198 -23.483)" fill="#91b508"/>
        <path id="Tracé_36" data-name="Tracé 36" d="M186.074,80.728a2.48,2.48,0,0,1-1.9-.692,2.759,2.759,0,0,1-.651-1.966,3.017,3.017,0,0,1,.2-1.129,2.421,2.421,0,0,1,.545-.839,2.3,2.3,0,0,1,.824-.52,2.99,2.99,0,0,1,1.039-.176,3.332,3.332,0,0,1,.588.048,3.831,3.831,0,0,1,.464.11,2.338,2.338,0,0,1,.332.129c.088.045.152.079.192.1l-.332.927a2.749,2.749,0,0,0-.548-.213,2.59,2.59,0,0,0-.711-.089,1.553,1.553,0,0,0-.519.089,1.159,1.159,0,0,0-.449.283,1.416,1.416,0,0,0-.313.5,2.116,2.116,0,0,0-.118.751,2.649,2.649,0,0,0,.078.659,1.383,1.383,0,0,0,.25.527,1.207,1.207,0,0,0,.453.35,1.622,1.622,0,0,0,.678.129,3.075,3.075,0,0,0,.448-.03,3.355,3.355,0,0,0,.354-.069,1.96,1.96,0,0,0,.272-.093l.213-.1.317.92a2.748,2.748,0,0,1-.685.265,4,4,0,0,1-1.024.118" transform="translate(-59.293 -24.361)" fill="#91b508"/>
        <path id="Tracé_37" data-name="Tracé 37" d="M191.708,78.069a2.334,2.334,0,0,0,.091.678,1.548,1.548,0,0,0,.265.519,1.158,1.158,0,0,0,.423.334,1.449,1.449,0,0,0,1.145,0,1.16,1.16,0,0,0,.427-.334,1.573,1.573,0,0,0,.265-.519,2.334,2.334,0,0,0,.091-.678,2.366,2.366,0,0,0-.091-.68,1.568,1.568,0,0,0-.265-.523,1.183,1.183,0,0,0-.427-.335,1.349,1.349,0,0,0-.57-.118,1.3,1.3,0,0,0-.575.122,1.2,1.2,0,0,0-.423.338,1.537,1.537,0,0,0-.265.523,2.337,2.337,0,0,0-.091.673m3.894,0a3.139,3.139,0,0,1-.195,1.152,2.365,2.365,0,0,1-.534.832,2.172,2.172,0,0,1-.806.5,2.928,2.928,0,0,1-1,.17,2.85,2.85,0,0,1-.987-.17,2.25,2.25,0,0,1-.81-.5,2.34,2.34,0,0,1-.545-.832,3.081,3.081,0,0,1-.2-1.152,2.991,2.991,0,0,1,.206-1.152,2.458,2.458,0,0,1,.555-.835,2.3,2.3,0,0,1,.811-.509,2.8,2.8,0,0,1,.968-.169,2.881,2.881,0,0,1,.986.169,2.243,2.243,0,0,1,.81.509,2.417,2.417,0,0,1,.545.835,3.1,3.1,0,0,1,.2,1.152" transform="translate(-61.554 -24.361)" fill="#91b508"/>
        <path id="Tracé_38" data-name="Tracé 38" d="M203.07,79.693v.987h-3.408v-5.1h1.148v4.115Z" transform="translate(-64.506 -24.417)" fill="#91b508"/>
        <path id="Tracé_39" data-name="Tracé 39" d="M206.648,78.069a2.334,2.334,0,0,0,.091.678,1.548,1.548,0,0,0,.265.519,1.158,1.158,0,0,0,.423.334,1.449,1.449,0,0,0,1.145,0,1.16,1.16,0,0,0,.427-.334,1.573,1.573,0,0,0,.265-.519,2.334,2.334,0,0,0,.091-.678,2.366,2.366,0,0,0-.091-.68,1.568,1.568,0,0,0-.265-.523,1.184,1.184,0,0,0-.427-.335,1.35,1.35,0,0,0-.571-.118,1.292,1.292,0,0,0-.574.122,1.2,1.2,0,0,0-.423.338,1.537,1.537,0,0,0-.265.523,2.337,2.337,0,0,0-.091.673m3.894,0a3.138,3.138,0,0,1-.195,1.152,2.365,2.365,0,0,1-.534.832,2.172,2.172,0,0,1-.806.5,2.929,2.929,0,0,1-1.005.17,2.849,2.849,0,0,1-.986-.17,2.25,2.25,0,0,1-.81-.5,2.34,2.34,0,0,1-.545-.832,3.081,3.081,0,0,1-.2-1.152,2.991,2.991,0,0,1,.206-1.152,2.458,2.458,0,0,1,.555-.835,2.289,2.289,0,0,1,.811-.509A2.8,2.8,0,0,1,208,75.4a2.882,2.882,0,0,1,.987.169,2.243,2.243,0,0,1,.81.509,2.417,2.417,0,0,1,.545.835,3.1,3.1,0,0,1,.2,1.152" transform="translate(-66.38 -24.361)" fill="#91b508"/>
        <path id="Tracé_40" data-name="Tracé 40" d="M216.984,76.406a1.4,1.4,0,0,0-1.16.445,1.9,1.9,0,0,0-.357,1.218,2.424,2.424,0,0,0,.089.682,1.492,1.492,0,0,0,.265.526,1.19,1.19,0,0,0,.441.343,1.47,1.47,0,0,0,.619.121c.127,0,.236,0,.327-.007a1.678,1.678,0,0,0,.239-.03V77.93H218.6v2.526a4.406,4.406,0,0,1-.662.173,5.853,5.853,0,0,1-1.126.091,2.932,2.932,0,0,1-1.042-.176,2.167,2.167,0,0,1-.8-.516,2.292,2.292,0,0,1-.512-.831,3.266,3.266,0,0,1-.179-1.127,3.012,3.012,0,0,1,.2-1.133,2.42,2.42,0,0,1,.545-.835,2.315,2.315,0,0,1,.813-.52,2.815,2.815,0,0,1,1-.176,4.044,4.044,0,0,1,.651.048,4.148,4.148,0,0,1,.5.11,2.309,2.309,0,0,1,.346.129c.091.045.156.079.195.1l-.331.921a3.041,3.041,0,0,0-.541-.218,2.318,2.318,0,0,0-.667-.091" transform="translate(-69.228 -24.361)" fill="#91b508"/>
        <rect id="Rectangle_7" data-name="Rectangle 7" width="1.149" height="5.101" transform="translate(150.586 51.161)" fill="#91b508"/>
        <path id="Tracé_41" data-name="Tracé 41" d="M226.976,78.069a2.334,2.334,0,0,0,.091.678,1.548,1.548,0,0,0,.265.519,1.158,1.158,0,0,0,.423.334,1.449,1.449,0,0,0,1.145,0,1.16,1.16,0,0,0,.427-.334,1.574,1.574,0,0,0,.265-.519,2.335,2.335,0,0,0,.091-.678,2.367,2.367,0,0,0-.091-.68,1.568,1.568,0,0,0-.265-.523,1.184,1.184,0,0,0-.427-.335,1.35,1.35,0,0,0-.571-.118,1.294,1.294,0,0,0-.574.122,1.2,1.2,0,0,0-.423.338,1.537,1.537,0,0,0-.265.523,2.337,2.337,0,0,0-.091.673m3.894,0a3.3,3.3,0,0,1-.132.969,2.532,2.532,0,0,1-.372.754,2.142,2.142,0,0,1-.571.537,2.332,2.332,0,0,1-.728.309.414.414,0,0,0,.162.24,1.07,1.07,0,0,0,.317.151,2.556,2.556,0,0,0,.445.088q.255.029.548.051l-.236.839a5.5,5.5,0,0,1-.982-.114,2.457,2.457,0,0,1-.692-.255,1.355,1.355,0,0,1-.449-.4,1.8,1.8,0,0,1-.254-.544,2.625,2.625,0,0,1-.847-.255,2.173,2.173,0,0,1-.676-.525,2.418,2.418,0,0,1-.449-.8,3.2,3.2,0,0,1-.162-1.053A2.992,2.992,0,0,1,226,76.917a2.459,2.459,0,0,1,.555-.835,2.289,2.289,0,0,1,.811-.509,2.8,2.8,0,0,1,.967-.169,2.882,2.882,0,0,1,.987.169,2.243,2.243,0,0,1,.81.509,2.417,2.417,0,0,1,.545.835,3.1,3.1,0,0,1,.2,1.152" transform="translate(-72.948 -24.361)" fill="#91b508"/>
        <path id="Tracé_42" data-name="Tracé 42" d="M236.891,80.784a2.568,2.568,0,0,1-.927-.151,1.743,1.743,0,0,1-.644-.42,1.675,1.675,0,0,1-.374-.64,2.6,2.6,0,0,1-.123-.82V75.579h1.149v3.077a1.723,1.723,0,0,0,.07.527.966.966,0,0,0,.192.353.677.677,0,0,0,.294.195,1.152,1.152,0,0,0,.38.06.933.933,0,0,0,.681-.258,1.207,1.207,0,0,0,.261-.877V75.579H239v3.173a2.593,2.593,0,0,1-.125.824,1.642,1.642,0,0,1-1.038,1.06,2.72,2.72,0,0,1-.943.148" transform="translate(-75.866 -24.418)" fill="#91b508"/>
        <path id="Tracé_43" data-name="Tracé 43" d="M242.841,80.68v-5.1h3.446v.964h-2.3v1h2.039v.943H243.99v1.229h2.467v.964Z" transform="translate(-78.457 -24.418)" fill="#91b508"/>
        <path id="Tracé_44" data-name="Tracé 44" d="M36.847,93.312c.054,0,.116.008.188.01s.156,0,.255,0a1.693,1.693,0,0,0,1.277-.434,1.663,1.663,0,0,0,.416-1.2,1.44,1.44,0,0,0-1.656-1.627c-.079,0-.16,0-.243,0s-.162.009-.236.018Zm3.32-1.621a2.994,2.994,0,0,1-.206,1.156,2.144,2.144,0,0,1-.586.817,2.494,2.494,0,0,1-.923.486,4.273,4.273,0,0,1-1.223.162c-.206,0-.447-.009-.722-.026a5.861,5.861,0,0,1-.81-.107V89.211a6.664,6.664,0,0,1,.829-.1c.287-.017.534-.026.74-.026a4.468,4.468,0,0,1,1.189.148,2.447,2.447,0,0,1,.917.464,2.072,2.072,0,0,1,.59.81,3.083,3.083,0,0,1,.206,1.185" transform="translate(-11.533 -28.781)" fill="#75adca"/>
        <path id="Tracé_45" data-name="Tracé 45" d="M44.039,94.274v-5.1h3.446v.964h-2.3v1h2.039v.943H45.187V93.31h2.467v.964Z" transform="translate(-14.228 -28.809)" fill="#75adca"/>
        <path id="Tracé_46" data-name="Tracé 46" d="M52.2,93.341a1.652,1.652,0,0,0,.4-.041.754.754,0,0,0,.254-.11.364.364,0,0,0,.132-.165.6.6,0,0,0,.037-.214.494.494,0,0,0-.236-.416,3.425,3.425,0,0,0-.81-.357c-.167-.058-.334-.126-.5-.2a1.85,1.85,0,0,1-.449-.287,1.351,1.351,0,0,1-.323-.42,1.314,1.314,0,0,1-.126-.6,1.494,1.494,0,0,1,.133-.637,1.36,1.36,0,0,1,.376-.482,1.707,1.707,0,0,1,.588-.305,2.651,2.651,0,0,1,.78-.107,3.115,3.115,0,0,1,1.51.353l-.331.906a3.055,3.055,0,0,0-.475-.195,2.051,2.051,0,0,0-.63-.085,1.161,1.161,0,0,0-.592.114.387.387,0,0,0-.181.351.4.4,0,0,0,.067.236.625.625,0,0,0,.188.173,1.641,1.641,0,0,0,.278.14c.106.041.222.085.35.129a7.35,7.35,0,0,1,.692.291,1.858,1.858,0,0,1,.489.334,1.227,1.227,0,0,1,.291.449,1.846,1.846,0,0,1,.095.627,1.33,1.33,0,0,1-.5,1.107,2.413,2.413,0,0,1-1.509.395,4.163,4.163,0,0,1-.612-.041,3.971,3.971,0,0,1-.482-.1,2.792,2.792,0,0,1-.361-.125c-.1-.044-.185-.086-.255-.125l.325-.913a2.829,2.829,0,0,0,.563.225,2.942,2.942,0,0,0,.821.1" transform="translate(-16.311 -28.753)" fill="#75adca"/>
        <path id="Tracé_47" data-name="Tracé 47" d="M64.12,89.172v.979H62.582v4.122H61.433V90.151H59.894v-.979Z" transform="translate(-19.35 -28.809)" fill="#75adca"/>
        <path id="Tracé_48" data-name="Tracé 48" d="M69.111,90.065c-.083,0-.158,0-.225.007l-.187.015v1.384h.324a1.943,1.943,0,0,0,.927-.163.584.584,0,0,0,.28-.552.562.562,0,0,0-.283-.533,1.751,1.751,0,0,0-.836-.158m-.066-.98a3.162,3.162,0,0,1,1.759.409,1.419,1.419,0,0,1,.611,1.27,1.436,1.436,0,0,1-.246.873,1.628,1.628,0,0,1-.711.527c.1.127.211.273.324.437s.225.336.334.516.217.365.321.559.2.384.287.571H70.441c-.095-.167-.189-.336-.285-.508s-.195-.339-.3-.5-.2-.315-.3-.46a4.826,4.826,0,0,0-.3-.395H68.7v1.863H67.55V89.218a6.333,6.333,0,0,1,.778-.1q.4-.029.717-.03" transform="translate(-21.824 -28.781)" fill="#75adca"/>
        <path id="Tracé_49" data-name="Tracé 49" d="M77.265,90.329q-.039.112-.113.3l-.168.442c-.063.167-.134.351-.211.552s-.158.411-.238.632h1.459c-.079-.221-.154-.433-.227-.634s-.142-.387-.208-.554l-.173-.441q-.075-.191-.12-.3m1.38,3.946c-.057-.177-.118-.359-.183-.546s-.13-.373-.195-.558H76.274c-.065.185-.129.372-.194.56s-.125.368-.181.544H74.707q.288-.825.546-1.524t.506-1.318q.247-.618.487-1.174t.5-1.085h1.088q.252.529.5,1.085t.491,1.174q.248.619.507,1.318t.547,1.524Z" transform="translate(-24.136 -28.809)" fill="#75adca"/>
        <path id="Tracé_50" data-name="Tracé 50" d="M87.057,94.274q-.493-.876-1.068-1.73a17.478,17.478,0,0,0-1.222-1.612v3.342H83.633v-5.1h.936q.243.243.537.6t.6.755c.2.268.407.544.608.832s.39.564.567.828v-3.01h1.141v5.1Z" transform="translate(-27.02 -28.809)" fill="#75adca"/>
        <path id="Tracé_51" data-name="Tracé 51" d="M93.422,93.341a1.644,1.644,0,0,0,.4-.041.747.747,0,0,0,.255-.11.369.369,0,0,0,.132-.165.6.6,0,0,0,.037-.214.493.493,0,0,0-.235-.416,3.425,3.425,0,0,0-.81-.357q-.251-.087-.5-.2a1.837,1.837,0,0,1-.449-.287,1.363,1.363,0,0,1-.324-.42,1.314,1.314,0,0,1-.126-.6,1.494,1.494,0,0,1,.133-.637,1.344,1.344,0,0,1,.376-.482A1.707,1.707,0,0,1,92.9,89.1a2.647,2.647,0,0,1,.78-.107,3.115,3.115,0,0,1,1.51.353l-.332.906a3.055,3.055,0,0,0-.475-.195,2.046,2.046,0,0,0-.63-.085,1.163,1.163,0,0,0-.592.114.387.387,0,0,0-.181.351.406.406,0,0,0,.066.236.641.641,0,0,0,.188.173,1.624,1.624,0,0,0,.279.14c.106.041.222.085.35.129a7.331,7.331,0,0,1,.692.291,1.836,1.836,0,0,1,.489.334,1.22,1.22,0,0,1,.292.449,1.829,1.829,0,0,1,.095.627,1.329,1.329,0,0,1-.5,1.107,2.41,2.41,0,0,1-1.509.395,4.16,4.16,0,0,1-.611-.041,4.011,4.011,0,0,1-.483-.1,2.779,2.779,0,0,1-.36-.125c-.1-.044-.185-.086-.255-.125l.325-.913a2.848,2.848,0,0,0,.562.225,2.954,2.954,0,0,0,.822.1" transform="translate(-29.63 -28.753)" fill="#75adca"/>
        <path id="Tracé_52" data-name="Tracé 52" d="M100.442,90.065c-.084,0-.165,0-.246.007s-.151.009-.211.015v1.472h.361a1.957,1.957,0,0,0,.9-.162.622.622,0,0,0,.3-.6.726.726,0,0,0-.077-.353.586.586,0,0,0-.221-.225.978.978,0,0,0-.35-.118,2.852,2.852,0,0,0-.456-.033m-.074-.98a3.194,3.194,0,0,1,1.753.4,1.456,1.456,0,0,1,.611,1.314,1.475,1.475,0,0,1-.618,1.329,3.2,3.2,0,0,1-1.767.408h-.361v1.709H98.837V89.218a6.317,6.317,0,0,1,.8-.1q.419-.029.736-.03" transform="translate(-31.932 -28.781)" fill="#75adca"/>
        <path id="Tracé_53" data-name="Tracé 53" d="M107.027,91.663a2.335,2.335,0,0,0,.091.678,1.542,1.542,0,0,0,.265.519,1.158,1.158,0,0,0,.423.334,1.449,1.449,0,0,0,1.145,0,1.16,1.16,0,0,0,.427-.334,1.567,1.567,0,0,0,.265-.519,2.334,2.334,0,0,0,.091-.678,2.367,2.367,0,0,0-.091-.68,1.558,1.558,0,0,0-.265-.523,1.178,1.178,0,0,0-.427-.336,1.35,1.35,0,0,0-.571-.118,1.292,1.292,0,0,0-.574.122,1.2,1.2,0,0,0-.423.338,1.537,1.537,0,0,0-.265.523,2.338,2.338,0,0,0-.091.673m3.894,0a3.136,3.136,0,0,1-.195,1.152,2.364,2.364,0,0,1-.534.832,2.172,2.172,0,0,1-.806.5,2.93,2.93,0,0,1-1.005.17,2.849,2.849,0,0,1-.986-.17,2.25,2.25,0,0,1-.81-.5,2.34,2.34,0,0,1-.545-.832,3.079,3.079,0,0,1-.2-1.152,2.992,2.992,0,0,1,.206-1.152,2.459,2.459,0,0,1,.555-.835,2.278,2.278,0,0,1,.811-.508,2.786,2.786,0,0,1,.967-.169,2.866,2.866,0,0,1,.987.169,2.232,2.232,0,0,1,.81.508,2.417,2.417,0,0,1,.545.835,3.1,3.1,0,0,1,.2,1.152" transform="translate(-34.195 -28.753)" fill="#75adca"/>
        <path id="Tracé_54" data-name="Tracé 54" d="M116.645,90.065c-.083,0-.158,0-.225.007l-.188.015v1.384h.324a1.943,1.943,0,0,0,.927-.163.584.584,0,0,0,.28-.552.561.561,0,0,0-.283-.533,1.751,1.751,0,0,0-.836-.158m-.066-.98a3.162,3.162,0,0,1,1.759.409,1.419,1.419,0,0,1,.611,1.27,1.436,1.436,0,0,1-.246.873,1.628,1.628,0,0,1-.711.527c.1.127.211.273.324.437s.225.336.334.516.218.365.321.559.2.384.287.571h-1.283l-.285-.508q-.144-.258-.3-.5c-.1-.162-.2-.315-.3-.46s-.2-.277-.3-.395h-.567v1.863h-1.149V89.218a6.333,6.333,0,0,1,.778-.1q.4-.029.717-.03" transform="translate(-37.181 -28.781)" fill="#75adca"/>
        <path id="Tracé_55" data-name="Tracé 55" d="M126.129,89.172v.979H124.59v4.122h-1.148V90.151H121.9v-.979Z" transform="translate(-39.384 -28.809)" fill="#75adca"/>
        <path id="Tracé_56" data-name="Tracé 56" d="M130.8,93.341a1.644,1.644,0,0,0,.4-.041.746.746,0,0,0,.255-.11.369.369,0,0,0,.132-.165.6.6,0,0,0,.037-.214.493.493,0,0,0-.235-.416,3.425,3.425,0,0,0-.81-.357c-.167-.058-.334-.126-.5-.2a1.837,1.837,0,0,1-.449-.287,1.363,1.363,0,0,1-.324-.42,1.314,1.314,0,0,1-.126-.6,1.494,1.494,0,0,1,.133-.637,1.352,1.352,0,0,1,.376-.482,1.707,1.707,0,0,1,.588-.305,2.65,2.65,0,0,1,.78-.107,3.115,3.115,0,0,1,1.51.353l-.332.906a3.056,3.056,0,0,0-.475-.195,2.046,2.046,0,0,0-.63-.085,1.163,1.163,0,0,0-.592.114.387.387,0,0,0-.181.351.406.406,0,0,0,.066.236.641.641,0,0,0,.188.173,1.624,1.624,0,0,0,.279.14c.106.041.222.085.35.129a7.331,7.331,0,0,1,.692.291,1.836,1.836,0,0,1,.489.334,1.221,1.221,0,0,1,.292.449,1.829,1.829,0,0,1,.095.627,1.329,1.329,0,0,1-.5,1.107,2.41,2.41,0,0,1-1.509.395,4.161,4.161,0,0,1-.611-.041,4.012,4.012,0,0,1-.483-.1,2.779,2.779,0,0,1-.36-.125c-.1-.044-.185-.086-.255-.125l.325-.913a2.838,2.838,0,0,0,.563.225,2.945,2.945,0,0,0,.821.1" transform="translate(-41.707 -28.753)" fill="#75adca"/>
        <path id="Tracé_57" data-name="Tracé 57" d="M139.11,94.274v-5.1h3.276v.787h-2.348v1.258h2.091v.773h-2.091v1.495h2.525v.788Z" transform="translate(-44.943 -28.809)" fill="#152220"/>
        <path id="Tracé_58" data-name="Tracé 58" d="M149.248,94.274q-.252-.419-.56-.9t-.64-.971q-.331-.489-.674-.95t-.651-.828v3.651h-.913v-5.1h.758q.294.309.634.732t.68.879c.228.3.45.611.663.917s.4.592.57.858V89.173h.92v5.1Z" transform="translate(-47.108 -28.809)" fill="#152220"/>
        <path id="Tracé_59" data-name="Tracé 59" d="M157.956,91.952v1.554c.1.01.213.018.331.022s.226.007.324.007a3.462,3.462,0,0,0,.533-.037,1.378,1.378,0,0,0,.427-.128.766.766,0,0,0,.286-.246.688.688,0,0,0,.107-.4.622.622,0,0,0-.316-.6,1.874,1.874,0,0,0-.876-.17Zm0-.728h.655a1.9,1.9,0,0,0,.832-.151.553.553,0,0,0,.3-.542.539.539,0,0,0-.313-.523,1.845,1.845,0,0,0-.814-.154c-.141,0-.269,0-.379.007s-.2.012-.283.022Zm.625,3.085q-.4,0-.817-.026a3.77,3.77,0,0,1-.722-.107V89.221c.108-.02.223-.038.346-.056s.248-.03.376-.041.254-.017.38-.022.243-.007.356-.007a5.024,5.024,0,0,1,.861.07,2.185,2.185,0,0,1,.688.232,1.2,1.2,0,0,1,.453.428,1.236,1.236,0,0,1,.162.655,1.085,1.085,0,0,1-.173.618,1.216,1.216,0,0,1-.483.412,1.343,1.343,0,0,1,.685.456,1.26,1.26,0,0,1,.221.766,1.336,1.336,0,0,1-.575,1.181,3.141,3.141,0,0,1-1.759.395" transform="translate(-50.737 -28.785)" fill="#152220"/>
        <path id="Tracé_60" data-name="Tracé 60" d="M165.986,89.9q-.294,0-.545.022V91.57h.405a4.18,4.18,0,0,0,.6-.037,1.251,1.251,0,0,0,.43-.132.644.644,0,0,0,.261-.258.85.85,0,0,0,.089-.413.811.811,0,0,0-.089-.4.648.648,0,0,0-.253-.258,1.189,1.189,0,0,0-.395-.136,2.857,2.857,0,0,0-.5-.041m-.066-.8a2.965,2.965,0,0,1,1.69.4,1.527,1.527,0,0,1-.439,2.643c.093.113.2.25.317.412s.237.337.36.527.24.382.353.581.214.393.3.585h-1.038c-.093-.177-.194-.354-.3-.534s-.217-.353-.327-.523-.22-.328-.328-.479-.208-.283-.3-.4c-.068,0-.127.007-.177.007h-.589V94.25h-.927V89.222a4.8,4.8,0,0,1,.722-.1c.255-.017.483-.025.684-.025" transform="translate(-53.151 -28.785)" fill="#152220"/>
        <path id="Tracé_61" data-name="Tracé 61" d="M171.8,94.274v-5.1h3.276v.787h-2.348v1.258h2.091v.773h-2.091v1.495h2.525v.788Z" transform="translate(-55.505 -28.809)" fill="#152220"/>
        <path id="Tracé_62" data-name="Tracé 62" d="M181.808,89.172v.8h-1.568v4.3H179.3v-4.3h-1.568v-.8Z" transform="translate(-57.423 -28.809)" fill="#152220"/>
        <path id="Tracé_63" data-name="Tracé 63" d="M186.115,90.159q-.17.39-.386.949t-.454,1.215h1.679q-.236-.655-.456-1.222t-.383-.942m1.505,4.115q-.1-.3-.214-.6t-.214-.6h-2.155c-.068.206-.139.408-.211.607l-.211.592h-.964q.286-.816.544-1.509t.5-1.311q.247-.617.489-1.177t.5-1.1h.885q.258.544.5,1.1t.489,1.177q.247.619.508,1.311t.548,1.509Z" transform="translate(-59.334 -28.809)" fill="#152220"/>
        <path id="Tracé_64" data-name="Tracé 64" d="M194.368,89.815a1.492,1.492,0,0,0-1.2.489,2.028,2.028,0,0,0-.416,1.358,2.724,2.724,0,0,0,.1.755,1.661,1.661,0,0,0,.294.586,1.347,1.347,0,0,0,.486.379,1.6,1.6,0,0,0,.682.137,4.143,4.143,0,0,0,.42-.019,1.641,1.641,0,0,0,.28-.048V91.618h.927V94.07a4.273,4.273,0,0,1-.648.162,5.579,5.579,0,0,1-1.052.089,2.791,2.791,0,0,1-1.009-.177,2.1,2.1,0,0,1-.776-.515,2.351,2.351,0,0,1-.5-.832,3.356,3.356,0,0,1-.176-1.135,3.053,3.053,0,0,1,.195-1.133,2.434,2.434,0,0,1,.533-.835,2.272,2.272,0,0,1,.795-.52,2.684,2.684,0,0,1,.972-.176,3.728,3.728,0,0,1,.63.048,4.08,4.08,0,0,1,.475.107,1.936,1.936,0,0,1,.328.125c.085.044.146.076.181.1l-.28.757a2.251,2.251,0,0,0-.548-.223,2.5,2.5,0,0,0-.688-.093" transform="translate(-61.959 -28.753)" fill="#152220"/>
        <path id="Tracé_65" data-name="Tracé 65" d="M203.273,94.274q-.251-.419-.56-.9t-.641-.971q-.33-.489-.673-.95t-.651-.828v3.651h-.913v-5.1h.758q.294.309.633.732t.681.879q.342.457.663.917t.571.858V89.173h.92v5.1Z" transform="translate(-64.562 -28.809)" fill="#152220"/>
        <path id="Tracé_66" data-name="Tracé 66" d="M208.208,94.274v-5.1h3.276v.787h-2.348v1.258h2.091v.773h-2.091v1.495h2.525v.788Z" transform="translate(-67.267 -28.809)" fill="#152220"/>
      </g>
    </g>
  </g>
</svg>
